<?xml version="1.0" encoding="utf-8"?>
<!-- Generator: Adobe Illustrator 26.0.2, SVG Export Plug-In . SVG Version: 6.00 Build 0)  -->
<svg version="1.1" id="Layer_1" xmlns="http://www.w3.org/2000/svg" xmlns:xlink="http://www.w3.org/1999/xlink" x="0px" y="0px"
	 viewBox="0 0 458.1 225.1" style="enable-background:new 0 0 458.1 225.1;" xml:space="preserve">
<style type="text/css">
	.st0{fill:#FFFFFF;}
	.st1{fill:none;}
</style>
<g>
	<g>
		<g>
			<path class="st0" d="M254.4,141.2v18.8c-1.5,0.8-3.6,1.5-6.2,2c-2.6,0.5-5.3,0.8-7.9,0.8c-4,0-7.5-0.8-10.4-2.5
				c-2.9-1.7-5.1-4.1-6.6-7.3c-1.5-3.2-2.3-7-2.3-11.4c0-4.4,0.8-8.1,2.3-11.3c1.5-3.2,3.7-5.6,6.6-7.2s6.2-2.5,10.1-2.5
				c5.8,0,10.5,1.8,14,5.4l-1.5,2.8c-2-1.8-4-3.1-5.9-3.9c-2-0.8-4.2-1.2-6.6-1.2c-4.9,0-8.6,1.5-11.3,4.6c-2.6,3.1-4,7.5-4,13.2
				c0,5.8,1.3,10.3,4,13.4c2.7,3.1,6.6,4.6,11.6,4.6c3.9,0,7.5-0.6,10.8-1.9v-13.5h-10.9v-3.1H254.4z"/>
			<path class="st0" d="M278.6,160.3c-2.8-1.7-4.9-4.1-6.4-7.3c-1.5-3.2-2.2-6.9-2.2-11.2c0-4.3,0.7-8.1,2.2-11.2
				c1.5-3.2,3.6-5.6,6.3-7.3c2.8-1.7,6-2.5,9.8-2.5c3.8,0,7.1,0.9,9.8,2.5c2.8,1.7,4.9,4.1,6.4,7.3c1.5,3.1,2.2,6.9,2.2,11.2
				c0,4.3-0.7,8.1-2.2,11.3c-1.5,3.2-3.6,5.6-6.4,7.3c-2.8,1.7-6,2.6-9.8,2.6C284.6,162.8,281.3,162,278.6,160.3z M299.1,155
				c2.6-3.1,3.9-7.6,3.9-13.3c0-5.7-1.3-10.1-3.8-13.2c-2.5-3.1-6.2-4.6-10.8-4.6c-4.6,0-8.2,1.6-10.8,4.7
				c-2.6,3.1-3.9,7.5-3.9,13.2s1.3,10.1,3.9,13.2c2.6,3.1,6.2,4.7,10.8,4.7C293,159.6,296.6,158.1,299.1,155z"/>
			<path class="st0" d="M322.8,162.4v-41.3h3.6v38.1h21.3v3.1H322.8z"/>
			<path class="st0" d="M360.9,121.1h13.3c6.6,0,11.6,1.8,15.2,5.3c3.6,3.6,5.3,8.6,5.3,15.2c0,6.6-1.8,11.7-5.4,15.3
				c-3.6,3.6-8.6,5.4-15.2,5.4h-13.3V121.1z M374,159.2c5.6,0,9.8-1.5,12.6-4.4c2.8-3,4.2-7.3,4.2-13.1c0-11.6-5.6-17.4-16.9-17.4
				h-9.5v35H374z"/>
		</g>
		<path class="st0" d="M224.9,67.7H242c4.3,0,7.7,1.1,10.1,3.2s3.6,5,3.6,8.6c0,3.6-1.2,6.5-3.7,8.6c-2.5,2.1-5.8,3.2-10.1,3.2
			h-11.2V109h-6V67.7z M241.3,86.5c2.9,0,5-0.6,6.5-1.8s2.2-2.9,2.2-5.2c0-2.2-0.7-4-2.2-5.2c-1.4-1.2-3.6-1.8-6.5-1.8h-10.5v14
			H241.3z"/>
		<path class="st0" d="M292,109l-4.4-10.2h-20.9l-4.4,10.2h-6.1l18.4-41.3h5l18.4,41.3H292z M268.8,94h16.8l-8.4-19.6L268.8,94z"/>
		<path class="st0" d="M327.2,87.9l15.7,21h-7.1l-12-16.6L311.7,109h-7.1l15.7-21.1l-15-20.2h7l11.5,15.8l11.4-15.8h7.1L327.2,87.9z
			"/>
	</g>
	<rect x="-0.4" y="-0.3" class="st1" width="457.8" height="225.4"/>
</g>
<g>
	<g>
		<path class="st0" d="M149.7,66C149.8,66,149.8,66,149.7,66l0.1,0c1.3,0.2,2.5,0.5,3.7,0.8l0.2,0c1.2,0.3,2.4,0.7,3.6,1.1l0.1,0
			c1.2,0.4,2.3,0.9,3.4,1.4l0,0c1.2,0.5,2.3,1.1,3.3,1.7c0.7,0.4,1.4,0.8,2.1,1.2c0.2,0.1,0.3,0.2,0.5,0.3l0.3,0.2
			c0.5,0.3,0.9,0.6,1.4,0.9c0.2,0.1,0.4,0.3,0.6,0.4l0.4,0.2c0.4,0.2,0.7,0.5,1.1,0.7c0.2,0.2,0.5,0.3,0.7,0.5l0.3,0.2
			c0.3,0.2,0.7,0.5,1,0.7c0.3,0.2,0.5,0.4,0.8,0.6l0.1,0.1c0.4,0.3,0.7,0.6,1.1,0.8c0.3,0.2,0.6,0.5,0.9,0.7c0.3,0.3,0.7,0.6,1,0.9
			c0.3,0.2,0.6,0.5,0.9,0.8c0.3,0.3,0.7,0.6,1,0.9c0.3,0.3,0.6,0.5,0.9,0.8c0.3,0.3,0.7,0.6,1,0.9c0.3,0.3,0.6,0.5,0.8,0.8
			c0.3,0.3,0.6,0.6,1,0.9l0,0c0.3,0.3,0.5,0.5,0.8,0.8c0.3,0.3,0.6,0.7,0.9,1l0.2,0.2c0.2,0.2,0.4,0.4,0.6,0.6
			c0.3,0.3,0.5,0.6,0.7,0.8l0.4,0.5c0.2,0.2,0.3,0.3,0.5,0.5c0.3,0.3,0.5,0.6,0.8,0.9l0.4,0.5c0.1,0.1,0.2,0.3,0.4,0.4
			c0.4,0.5,0.8,1,1.2,1.6l0,0.1c0.1,0.1,0.2,0.3,0.3,0.4c0.5,0.6,0.9,1.2,1.3,1.7c0.1,0.1,0.2,0.3,0.3,0.4l0.4,0.5
			c0.1,0.2,0.2,0.4,0.4,0.5c2.9-9.4,2.8-17.4-0.2-22.5c-2-3.5-5.4-5.7-9.9-6.5c-2.4-0.4-4.7-0.8-6.7-1.2c-11.7-2-21.9-3.7-31.6-10.5
			c-11.1-7.7-21.6-7.5-32,0.9c1.8,0.1,3.6,0.3,5.2,0.4c0.1,0,0.2,0,0.3,0l0.2,0c1.8,0.2,3.5,0.4,5.1,0.6l0.4,0.1
			c1.7,0.3,3.4,0.5,4.9,0.8l0.4,0.1c1.7,0.3,3.3,0.7,4.7,1l0.3,0.1c1.6,0.4,3.1,0.8,4.6,1.2l0.1,0c1.5,0.5,3,1,4.4,1.5
			c1.4,0.5,2.8,1.1,4.1,1.7l0.1,0.1c1.3,0.6,2.5,1.2,3.8,1.8C149.6,65.9,149.6,65.9,149.7,66C149.7,66,149.7,66,149.7,66"/>
		<path class="st0" d="M158,71.3c0.3,0.2,0.5,0.4,0.7,0.6c0.5,0.4,1,0.8,1.5,1.3l0.2,0.2c0.2,0.1,0.3,0.3,0.5,0.5
			c0.6,0.6,1.2,1.2,1.8,1.8c0,0,0.1,0.1,0.1,0.1c0.1,0,0.1,0.1,0.2,0.2c0.6,0.7,1.3,1.4,1.9,2.2c0.1,0.1,0.2,0.3,0.3,0.4
			c0.1,0.1,0.1,0.2,0.2,0.3c0.5,0.6,0.9,1.1,1.2,1.6c0.2,0.2,0.3,0.5,0.5,0.7l0.1,0.2c0.4,0.6,0.7,1.1,1,1.6
			c0.2,0.3,0.4,0.6,0.6,0.9c0.3,0.5,0.6,1,0.9,1.6l0.1,0.2c0.1,0.2,0.2,0.5,0.4,0.7c0.3,0.6,0.5,1.2,0.9,2c0,0.1,0.1,0.2,0.1,0.3
			c0.1,0.1,0.1,0.3,0.2,0.4c0.4,0.9,0.7,1.8,1,2.8c0,0.1,0.1,0.2,0.1,0.4c0,0.1,0,0.2,0.1,0.3c0.3,0.8,0.5,1.6,0.6,2.3
			c0.1,0.2,0.1,0.5,0.2,0.7l0.1,0.3c0.2,0.7,0.3,1.4,0.4,2c0.1,0.4,0.1,0.8,0.2,1.2c0.1,0.6,0.2,1.3,0.3,2l0,0.1
			c0,0.3,0.1,0.7,0.1,1c0.1,0.6,0.1,1.3,0.2,2.2l0,0.3c0,0.2,0,0.5,0,0.7c0.1,1.2,0.1,2.3,0.1,3.3c0,1.2-0.1,2.3-0.1,3.6
			c0,0.2,0,0.5-0.1,0.7c0,0.2,0,0.3,0,0.5c-0.1,0.9-0.2,1.6-0.3,2.4c0,0.3-0.1,0.7-0.2,1l-0.1,0.3c-0.1,0.6-0.2,1.4-0.4,2.1
			c-0.1,0.5-0.2,0.9-0.3,1.4c-0.2,0.7-0.3,1.4-0.5,2c-0.1,0.5-0.3,0.9-0.4,1.4c-0.2,0.6-0.4,1.3-0.7,2l-0.1,0.3
			c-0.1,0.4-0.3,0.7-0.4,1.1c-0.3,0.7-0.6,1.4-0.9,2.1c-0.1,0.1-0.1,0.3-0.2,0.4c-0.1,0.2-0.2,0.5-0.3,0.7c-0.4,0.8-0.8,1.6-1.3,2.5
			c0,0.1-0.1,0.2-0.1,0.3c-0.1,0.1-0.1,0.2-0.2,0.3c-0.3,0.6-0.7,1.2-1.1,1.8c0.3-0.3,0.5-0.6,0.8-0.9l0.1-0.1
			c0.1-0.1,0.2-0.2,0.3-0.4c0.1-0.1,0.3-0.3,0.4-0.4c0.9-1,1.8-2,2.6-3c1.1-1.3,2.1-2.6,3.2-3.9c0.2-0.3,0.4-0.6,0.7-0.9
			c0.1-0.2,0.3-0.4,0.4-0.6l0.4-0.5c0.5-0.7,1-1.3,1.5-2c0.3-0.4,0.5-0.7,0.8-1.1c0.1-0.2,0.3-0.4,0.4-0.6l0.4-0.6
			c0.4-0.6,0.8-1.1,1.1-1.7c0.3-0.4,0.5-0.8,0.7-1.2c0.1-0.2,0.3-0.4,0.4-0.6l0.4-0.6c0.3-0.5,0.7-1.1,1-1.6
			c0.2-0.4,0.5-0.8,0.7-1.2c0.1-0.2,0.2-0.4,0.3-0.6l0.3-0.5c0.3-0.5,0.6-1.1,0.9-1.6c0.2-0.4,0.4-0.8,0.6-1.2l0.6-1.1
			c0.3-0.5,0.6-1.1,0.8-1.6c0.2-0.4,0.4-0.8,0.6-1.2c0.1-0.2,0.2-0.4,0.3-0.6l0.2-0.5c0.2-0.5,0.5-1.1,0.7-1.6
			c0.2-0.4,0.3-0.8,0.5-1.2c0.1-0.2,0.2-0.4,0.2-0.6l0.1-0.3c0.2-0.5,0.4-1,0.6-1.4c-0.1-0.2-0.3-0.4-0.4-0.6l-0.1-0.1
			c-0.2-0.3-0.3-0.6-0.5-0.8c-0.2-0.3-0.4-0.6-0.6-0.9l-0.2-0.3c-0.2-0.2-0.3-0.5-0.5-0.7c-0.2-0.3-0.4-0.6-0.7-0.9l-0.2-0.2
			c-0.2-0.3-0.4-0.5-0.6-0.8c-0.2-0.3-0.4-0.5-0.6-0.8l-0.3-0.4c-0.2-0.2-0.4-0.5-0.6-0.7c-0.2-0.2-0.4-0.5-0.6-0.7l-0.3-0.4
			c-0.2-0.2-0.4-0.5-0.6-0.7c-0.2-0.3-0.4-0.5-0.7-0.7l-0.3-0.3c-0.2-0.3-0.5-0.5-0.7-0.8c-0.2-0.2-0.4-0.4-0.6-0.6l-0.5-0.5
			c-0.2-0.2-0.4-0.4-0.6-0.6c-0.2-0.2-0.4-0.4-0.7-0.7l-0.5-0.5c-0.2-0.2-0.4-0.4-0.6-0.6c-0.2-0.2-0.5-0.4-0.7-0.7l-0.5-0.5
			c-0.2-0.2-0.4-0.4-0.6-0.6c-0.2-0.2-0.5-0.4-0.7-0.6l-0.5-0.5c-0.2-0.2-0.4-0.3-0.6-0.5c-0.2-0.2-0.5-0.4-0.7-0.6l-0.6-0.5
			c-0.2-0.2-0.4-0.3-0.6-0.5c-0.2-0.2-0.5-0.4-0.8-0.6l-0.6-0.5c-0.2-0.2-0.4-0.3-0.6-0.5c-0.3-0.2-0.6-0.4-0.8-0.6l-0.6-0.4
			c-0.2-0.1-0.4-0.3-0.6-0.4c-0.3-0.2-0.6-0.4-0.9-0.6l-0.6-0.4c-0.2-0.1-0.3-0.2-0.5-0.3c-0.4-0.3-0.8-0.5-1.2-0.8l-0.5-0.3
			c-0.1-0.1-0.3-0.2-0.4-0.3c-0.7-0.4-1.4-0.8-2.1-1.2c-0.9-0.5-1.9-1-3-1.5c-0.2-0.1-0.4-0.2-0.6-0.3c-0.1-0.1-0.3-0.1-0.4-0.2
			C158.5,71.5,158.3,71.4,158,71.3"/>
		<path class="st0" d="M108,59.1L108,59.1c-0.5,0.5-0.9,0.9-1.4,1.3l-0.2,0.2c-0.5,0.5-0.9,1-1.4,1.5c-0.1,0.1-0.1,0.1-0.2,0.2
			c-0.5,0.5-1,1.1-1.6,1.7l-0.1,0.1c-0.6,0.6-1.2,1.3-1.8,2c-0.6,0.7-1.3,1.5-2,2.3c-0.1,0.2-0.3,0.3-0.4,0.5l-0.2,0.2
			c-0.4,0.5-0.9,1.1-1.3,1.6c-0.2,0.3-0.4,0.6-0.6,0.8l0,0.1c-0.4,0.5-0.8,1-1.2,1.5c-0.2,0.3-0.4,0.6-0.7,0.9
			c-0.4,0.5-0.8,1.1-1.2,1.6l-0.2,0.2c-0.1,0.2-0.3,0.4-0.4,0.6c-0.5,0.7-1,1.5-1.4,2.2c0,0-0.1,0.1-0.1,0.1l-0.1,0.1
			c-0.5,0.8-1,1.6-1.5,2.5c-0.1,0.1-0.2,0.3-0.3,0.4l-0.2,0.3c-0.3,0.6-0.7,1.2-1,1.7c-0.1,0.3-0.3,0.5-0.4,0.8L88.1,85
			c-0.3,0.5-0.6,1.1-0.9,1.6c-0.2,0.3-0.3,0.6-0.5,1c-0.3,0.6-0.6,1.1-0.8,1.7l-0.2,0.3c-0.1,0.2-0.2,0.4-0.3,0.5
			c-0.3,0.7-0.6,1.4-1,2.2l-0.1,0.2c0,0.1-0.1,0.1-0.1,0.2c-0.3,0.8-0.7,1.7-1,2.5c-0.1,0.1-0.1,0.3-0.2,0.4L83.1,96
			c-0.2,0.6-0.4,1.2-0.7,1.8c-0.1,0.3-0.2,0.6-0.3,0.9c-0.2,0.5-0.4,1.1-0.5,1.6c-0.1,0.3-0.2,0.6-0.3,0.9c-0.2,0.6-0.3,1.1-0.5,1.7
			l-0.1,0.2c-0.1,0.2-0.1,0.4-0.2,0.6c-0.2,0.6-0.3,1.3-0.5,2l0,0.2c0,0.1,0,0.2-0.1,0.3c-0.2,0.8-0.4,1.7-0.5,2.5
			c0,0.1,0,0.3-0.1,0.4l0,0.3c-0.1,0.7-0.2,1.3-0.3,1.8c0,0.2-0.1,0.4-0.1,0.7l0,0.2c-0.1,0.5-0.1,1.1-0.2,1.6
			c0,0.3-0.1,0.6-0.1,0.9c0,0.5-0.1,1.1-0.1,1.6l0,0.3c0,0.2,0,0.4,0,0.6c0,0.6-0.1,1.1-0.1,1.9c0,0.1,0,0.2,0,0.3
			c0,0.1,0,0.2,0,0.3c0,0.8,0,1.6,0,2.4c0,0.1,0,0.2,0,0.3c0,0.1,0,0.2,0,0.2c0,0.7,0.1,1.2,0.1,1.8c0,0.2,0,0.4,0,0.6l0,0.2
			c0,0.5,0.1,1,0.2,1.5c0,0.3,0.1,0.6,0.1,0.8c0.1,0.5,0.1,1,0.2,1.5l0,0.2c0,0.2,0.1,0.4,0.1,0.6c0.1,0.5,0.2,1,0.3,1.6l0.1,0.2
			c0,0.1,0,0.2,0.1,0.3c0.1,0.6,0.3,1.2,0.5,1.7c-0.1-0.8-0.2-1.7-0.3-2.6c0-0.1,0-0.2,0-0.3c0-0.1,0-0.2,0-0.3
			c-0.1-1-0.2-2-0.3-3.2c0-0.2,0-0.4,0-0.6l0-0.3c0-0.8,0-1.6,0-2.3c0-0.4,0-0.7,0-1.1c0-0.7,0-1.5,0.1-2.3l0-0.3c0-0.2,0-0.4,0-0.7
			c0.1-1.1,0.2-2.2,0.3-3.1c0-0.1,0-0.2,0-0.2l0-0.2c0.1-0.9,0.3-1.8,0.4-2.7c0-0.3,0.1-0.5,0.2-0.8l0-0.2c0.1-0.7,0.3-1.4,0.4-2.2
			c0.1-0.3,0.2-0.7,0.3-1c0.2-0.8,0.4-1.5,0.6-2.4c0-0.1,0.1-0.2,0.1-0.3c0-0.1,0.1-0.3,0.1-0.4c0.3-1,0.6-2,1-3
			c0.1-0.2,0.1-0.3,0.2-0.5l0.1-0.3c0.3-0.8,0.6-1.5,0.9-2.2c0.1-0.3,0.3-0.7,0.4-1c0.3-0.6,0.6-1.3,1-2l0.1-0.3
			c0.1-0.2,0.2-0.4,0.3-0.6c0.5-1,1-1.9,1.5-2.7c0.6-1,1.2-2,2-3.1l0.1-0.2c0.1-0.1,0.1-0.2,0.2-0.2c0.6-0.9,1.3-1.8,2.1-2.8
			c0.1-0.2,0.3-0.4,0.4-0.5c0.7-0.9,1.5-1.7,2.2-2.5c0.1-0.1,0.2-0.2,0.3-0.4l0.1-0.1c0.9-0.9,1.7-1.7,2.4-2.4
			c0.1-0.1,0.1-0.1,0.2-0.2c0.1-0.1,0.1-0.1,0.2-0.2c0.8-0.7,1.6-1.4,2.4-2.1l0.2-0.2c0.1-0.1,0.2-0.1,0.3-0.2
			c0.8-0.6,1.6-1.3,2.6-2l0.2-0.1c0.2-0.1,0.4-0.3,0.5-0.4c0.8-0.6,1.7-1.2,2.6-1.7c0.3-0.2,0.6-0.3,0.8-0.5c1-0.6,1.9-1.1,2.7-1.6
			c0.2-0.1,0.4-0.2,0.5-0.3l0.3-0.2c0.9-0.5,1.8-0.9,2.7-1.3c0.3-0.1,0.6-0.2,0.8-0.4c0.8-0.4,1.7-0.7,2.7-1.1l0.3-0.1
			c0.2-0.1,0.4-0.2,0.6-0.2c0.9-0.3,1.9-0.7,3-1c0.3-0.1,0.6-0.2,1-0.3c1-0.3,2-0.6,3-0.8c0.2-0.1,0.5-0.1,0.7-0.2l0.2,0
			c1.2-0.3,2.2-0.5,3.2-0.6c0.1,0,0.3,0,0.4-0.1l0.3,0c1.1-0.2,2.1-0.3,3.1-0.4c0.1,0,0.1,0,0.2,0c0.1,0,0.2,0,0.3,0
			c1.1-0.1,2.2-0.2,3.5-0.2l0.2,0c0.1,0,0.3,0,0.4,0c0.9,0,1.9,0,2.8,0c-0.8-0.3-1.7-0.6-2.4-0.9c-0.1,0-0.1,0-0.2-0.1l-0.2,0
			c-0.9-0.3-1.8-0.6-2.9-0.9l-0.2-0.1c-0.2,0-0.3-0.1-0.5-0.1c-1.1-0.3-2.2-0.6-3.2-0.8c-0.1,0-0.3-0.1-0.4-0.1l-0.3-0.1
			c-1-0.2-2-0.4-3-0.6l-0.3-0.1c-0.1,0-0.3-0.1-0.4-0.1c-1.1-0.2-2.3-0.4-3.5-0.6c-0.2,0-0.3-0.1-0.5-0.1l-0.3,0
			c-1.2-0.2-2.3-0.3-3.4-0.5l-0.5-0.1c-1.2-0.1-2.4-0.3-3.9-0.4c-0.3,0-0.6-0.1-0.9-0.1c-1.5-0.1-2.8-0.2-4-0.3
			C109.1,59.1,108.5,59.1,108,59.1"/>
		<path class="st0" d="M94.3,159c0.3,0,0.5,0.1,0.8,0.1l0.4,0.1c0.3,0,0.5,0.1,0.8,0.1c0.3,0,0.6,0.1,0.9,0.1l0.7,0.1
			c0.3,0,0.6,0.1,0.8,0.1c0.3,0,0.6,0.1,0.9,0.1l0.8,0.1c0.3,0,0.6,0.1,0.9,0.1c0.3,0,0.6,0.1,0.9,0.1l0.8,0.1c0.3,0,0.5,0,0.8,0.1
			c0.3,0,0.7,0,1.1,0.1l0.9,0.1c0.2,0,0.5,0,0.7,0c0.4,0,0.8,0,1.1,0l0.9,0c0.2,0,0.5,0,0.7,0c0.5,0,1.1,0,1.6,0l0.6,0
			c0.2,0,0.4,0,0.6,0c1,0,1.9,0,2.9,0c12.4,0,24.1-3.3,33.7-9.6c14.9-9.6,23.5-25,23.6-42.2c0-1.1,0-2.3-0.1-3.4c0-0.2,0-0.3,0-0.5
			c0-0.1,0-0.2,0-0.4c-0.1-0.8-0.1-1.6-0.2-2.4c0-0.2,0-0.4-0.1-0.6c0-0.1,0-0.3-0.1-0.4l0-0.3c-0.1-0.6-0.2-1.2-0.3-1.8
			c0-0.2-0.1-0.4-0.1-0.6c0-0.1-0.1-0.3-0.1-0.4l-0.1-0.3c-0.1-0.6-0.2-1.1-0.4-1.7c-0.1-0.2-0.1-0.4-0.2-0.6c0-0.1-0.1-0.3-0.1-0.4
			l-0.1-0.4c-0.1-0.5-0.3-1-0.4-1.5c-0.1-0.2-0.2-0.4-0.2-0.7c0-0.1-0.1-0.3-0.2-0.4l-0.1-0.4c-0.2-0.4-0.3-0.9-0.5-1.3
			c-0.1-0.2-0.2-0.5-0.3-0.7c-0.1-0.1-0.1-0.3-0.2-0.4l-0.2-0.4c-0.2-0.4-0.3-0.8-0.5-1.1c-0.1-0.2-0.2-0.5-0.4-0.7
			c-0.1-0.1-0.2-0.3-0.2-0.4l-0.2-0.4c-0.2-0.4-0.4-0.7-0.6-1.1c-0.1-0.2-0.3-0.5-0.4-0.7c-0.1-0.1-0.2-0.3-0.3-0.4l-0.2-0.4
			c-0.2-0.3-0.4-0.7-0.6-1c-0.2-0.2-0.3-0.4-0.5-0.7c-0.1-0.1-0.2-0.2-0.3-0.4l-0.3-0.4c-0.2-0.3-0.5-0.6-0.7-0.9
			c-0.2-0.2-0.4-0.4-0.6-0.7c-0.1-0.1-0.2-0.2-0.3-0.4l-0.3-0.3c-0.2-0.3-0.5-0.6-0.7-0.8c-0.2-0.2-0.4-0.4-0.7-0.7
			c-0.1-0.1-0.2-0.2-0.3-0.3c-0.1-0.1-0.2-0.2-0.3-0.3c-0.3-0.3-0.5-0.5-0.8-0.8c-0.2-0.2-0.5-0.4-0.7-0.6c-0.1-0.1-0.2-0.2-0.4-0.3
			c-0.1-0.1-0.2-0.2-0.4-0.3c-0.3-0.2-0.5-0.5-0.8-0.7c-0.3-0.2-0.5-0.4-0.8-0.6c-0.1-0.1-0.3-0.2-0.4-0.3l-0.4-0.3
			c-0.3-0.2-0.6-0.4-0.9-0.6c-0.3-0.2-0.6-0.4-0.9-0.6c-0.1-0.1-0.3-0.2-0.4-0.3c-0.1-0.1-0.3-0.2-0.4-0.3c-0.3-0.2-0.6-0.4-0.9-0.6
			c-0.3-0.2-0.7-0.4-1-0.6l-0.4-0.2c-0.1-0.1-0.3-0.2-0.4-0.2c-0.3-0.2-0.6-0.3-0.9-0.5c-0.2,0-0.4-0.1-0.6-0.1l-0.5-0.1
			c-0.2,0-0.4-0.1-0.6-0.1c-0.2,0-0.5-0.1-0.7-0.1l-0.6-0.1c-0.2,0-0.4,0-0.6-0.1c-0.2,0-0.5,0-0.7-0.1l-0.6,0c-0.2,0-0.4,0-0.6,0
			c-0.2,0-0.5,0-0.7,0l-0.6,0c-0.2,0-0.4,0-0.6,0c-0.3,0-0.5,0-0.8,0l-0.6,0c-0.2,0-0.4,0-0.6,0c-0.2,0-0.5,0-0.7,0l-0.6,0
			c-0.2,0-0.5,0-0.7,0c-0.2,0-0.5,0-0.7,0l-0.6,0c-0.2,0-0.5,0-0.7,0c-0.2,0-0.5,0-0.7,0.1l-0.6,0.1c-0.2,0-0.5,0-0.7,0.1
			c-0.3,0-0.5,0.1-0.8,0.1l-0.6,0.1c-0.2,0-0.4,0.1-0.7,0.1c-0.3,0-0.5,0.1-0.8,0.1l-0.6,0.1c-0.2,0-0.4,0.1-0.7,0.1
			c-0.3,0-0.5,0.1-0.8,0.1l-0.6,0.1c-0.2,0-0.4,0.1-0.7,0.1c-0.2,0.1-0.5,0.1-0.8,0.2l-0.6,0.2c-0.2,0-0.4,0.1-0.7,0.2
			c-0.3,0.1-0.5,0.1-0.8,0.2l-0.6,0.2c-0.2,0.1-0.5,0.1-0.7,0.2c-0.2,0.1-0.5,0.1-0.7,0.2l-0.7,0.2c-0.2,0.1-0.4,0.1-0.7,0.2
			c-0.2,0.1-0.5,0.2-0.7,0.2l-0.6,0.2c-0.2,0.1-0.5,0.2-0.7,0.2c-0.2,0.1-0.5,0.2-0.7,0.3l-0.6,0.2c-0.2,0.1-0.4,0.2-0.7,0.3
			c-0.2,0.1-0.5,0.2-0.7,0.3l-0.6,0.3c-0.2,0.1-0.5,0.2-0.7,0.3c-0.2,0.1-0.4,0.2-0.7,0.3l-0.6,0.3c-0.2,0.1-0.5,0.2-0.7,0.3
			c-0.2,0.1-0.4,0.2-0.6,0.3l-0.7,0.3c-0.2,0.1-0.4,0.2-0.7,0.3c-0.2,0.1-0.4,0.2-0.6,0.3l-0.7,0.4c-0.2,0.1-0.4,0.2-0.6,0.4
			c-0.2,0.1-0.4,0.3-0.6,0.4l-0.6,0.4c-0.2,0.1-0.4,0.3-0.7,0.4c-0.2,0.1-0.4,0.3-0.6,0.4l-0.6,0.4c-0.2,0.1-0.4,0.3-0.7,0.4
			c-0.2,0.1-0.4,0.3-0.6,0.4l-0.6,0.4c-0.2,0.2-0.4,0.3-0.7,0.5c-0.2,0.1-0.4,0.3-0.6,0.4l-0.5,0.4c-0.2,0.2-0.4,0.3-0.7,0.5
			c-0.2,0.1-0.3,0.3-0.5,0.4l-0.6,0.5c-0.2,0.2-0.4,0.4-0.7,0.6c-0.2,0.1-0.3,0.3-0.5,0.4l-0.5,0.5c-0.2,0.2-0.4,0.4-0.6,0.6
			c-0.2,0.2-0.3,0.3-0.5,0.5l-0.5,0.5c-0.2,0.2-0.4,0.4-0.6,0.6c-0.1,0.2-0.3,0.3-0.4,0.5c-0.1,0.1-0.2,0.2-0.3,0.3l-0.3,0.3
			c-0.2,0.2-0.4,0.4-0.6,0.7c-0.1,0.2-0.3,0.3-0.4,0.5l-0.5,0.6c-0.2,0.2-0.4,0.4-0.5,0.7c-0.2,0.2-0.3,0.4-0.5,0.6l-0.5,0.6
			c-0.2,0.2-0.3,0.4-0.5,0.7c-0.2,0.2-0.4,0.5-0.5,0.8l-0.2,0.3c-0.1,0.1-0.2,0.2-0.2,0.3c-0.1,0.2-0.3,0.4-0.4,0.5
			c-0.4,0.7-0.9,1.3-1.3,2c-9.1,15.1-10.3,34.8-3.2,51.5c0.5,1.2,1,2.3,1.6,3.4c0.1,0.2,0.2,0.4,0.3,0.6c0.1,0.1,0.2,0.3,0.3,0.4
			l0.1,0.2c0.4,0.7,0.7,1.3,1.1,2c0.2,0.3,0.3,0.5,0.5,0.8c0.1,0.2,0.2,0.3,0.3,0.5l0.2,0.4c0.3,0.5,0.6,1,1,1.5
			c0.2,0.3,0.4,0.6,0.6,0.8c0.1,0.1,0.2,0.3,0.3,0.4l0.2,0.3C93.7,158.2,94,158.6,94.3,159 M127.7,149.2c-12.6,0-24.3-6.3-31.1-16.8
			c-10.9-16.8-6.2-38.7,11-50.8c9.4-6.7,20.6-8.9,30.8-6.2c9.2,2.5,16.4,8.6,20.4,17.3c10.6,23.2,2.1,42.2-11.1,50.7
			C141.7,147.2,134.8,149.2,127.7,149.2"/>
		<path class="st0" d="M97.2,162.2c3.3,3.3,7.1,6,11.2,8c20.6,10,28.9,2.5,41.4-8.9c7.8-7.1,16.6-15.1,30.5-21.1
			c8.1-3.5,13.2-8.5,15.3-14.8c2.6-8.1-0.4-16.7-3.4-22.5c0,0,0,0.1-0.1,0.1c0,0.1-0.1,0.2-0.1,0.3c-0.2,0.6-0.5,1.1-0.7,1.7
			c-0.3,0.8-0.7,1.5-1,2.2c-0.3,0.6-0.5,1.1-0.8,1.7c-0.4,0.7-0.7,1.5-1.1,2.2c-0.3,0.6-0.6,1.1-0.9,1.7c-0.5,0.8-0.9,1.6-1.3,2.3
			l-0.1,0.2c-0.3,0.5-0.6,1-0.9,1.5c-0.5,0.8-0.9,1.5-1.4,2.3l-0.2,0.4c-0.3,0.4-0.6,0.9-0.9,1.3c-0.5,0.8-1.1,1.7-1.6,2.4l-0.4,0.5
			c-0.2,0.3-0.5,0.7-0.7,1c-0.6,0.9-1.3,1.8-2,2.6c-0.1,0.2-0.3,0.4-0.4,0.5c-0.2,0.3-0.4,0.5-0.6,0.8c-1.1,1.4-2.1,2.7-3.1,3.9
			c-7.1,8.5-15.1,15.4-23.7,20.6c-8.7,5.7-19.2,9-30.3,9.8c-1.6,0.1-3.3,0.2-4.9,0.2c-1.3,0-2.7,0-4.4-0.1l-0.8,0
			c-1.4,0-2.7-0.1-4-0.2c-0.1,0-0.3,0-0.4,0l-0.3,0c-1.4-0.1-2.6-0.2-3.7-0.3l-0.3,0C99.7,162.5,98.5,162.3,97.2,162.2"/>
		<path class="st0" d="M76,87.9l0.2,0c-1.4,7.5-3.1,16-6.9,24.6c-6,13.4-6.9,24.1-2.7,31.7c3.7,6.8,11.6,11.5,23.5,14
			c-0.1-0.1-0.2-0.3-0.3-0.4c-0.1-0.1-0.1-0.2-0.2-0.3c-0.5-0.8-1-1.5-1.5-2.2c-0.2-0.3-0.4-0.7-0.6-1c-0.4-0.7-0.9-1.5-1.3-2.3
			l-0.2-0.3c-0.1-0.2-0.2-0.4-0.3-0.6c-0.6-1.2-1.1-2.2-1.5-3.2c-0.1-0.2-0.3-0.4-0.4-0.6c-0.1-0.1-0.2-0.2-0.2-0.3l-0.2-0.3
			c-0.2-0.2-0.3-0.4-0.5-0.7c-0.2-0.2-0.3-0.5-0.5-0.7l-0.4-0.6c-0.2-0.2-0.3-0.5-0.5-0.7c-0.1-0.2-0.3-0.5-0.4-0.7l-0.4-0.7
			c-0.1-0.2-0.3-0.5-0.4-0.7c-0.1-0.3-0.3-0.5-0.4-0.8l-0.3-0.6c-0.1-0.3-0.2-0.5-0.4-0.8c-0.1-0.3-0.2-0.5-0.3-0.8l-0.3-0.7
			c-0.1-0.2-0.2-0.5-0.3-0.7c-0.1-0.3-0.2-0.6-0.3-0.8l-0.1-0.4c0-0.1-0.1-0.3-0.1-0.4c-0.1-0.2-0.2-0.5-0.2-0.7
			c-0.1-0.3-0.2-0.6-0.3-0.9l-0.2-0.7c-0.1-0.3-0.2-0.5-0.2-0.8c-0.1-0.3-0.2-0.7-0.2-1l-0.2-0.7c-0.1-0.3-0.1-0.5-0.2-0.8
			c-0.1-0.3-0.1-0.7-0.2-1l-0.1-0.7c0-0.3-0.1-0.5-0.1-0.8c0-0.4-0.1-0.7-0.1-1.1l-0.1-0.8c0-0.3-0.1-0.5-0.1-0.8
			c0-0.4-0.1-0.7-0.1-1.1l0-0.7c0-0.3,0-0.5,0-0.8c0-0.4,0-0.8,0-1.2l0-0.4c0-0.1,0-0.3,0-0.4c0-0.2,0-0.5,0-0.7c0-0.4,0-0.8,0-1.2
			l0-0.8c0-0.2,0-0.5,0-0.7c0-0.4,0.1-0.9,0.1-1.3l0-0.3c0-0.1,0-0.3,0-0.4c0-0.2,0-0.4,0.1-0.7c0-0.4,0.1-0.9,0.1-1.3l0-0.4
			c0-0.1,0-0.3,0-0.4c0-0.2,0-0.4,0.1-0.7c0.1-0.5,0.1-1,0.2-1.4l0.1-0.3c0-0.1,0-0.3,0.1-0.4c0-0.2,0.1-0.4,0.1-0.6
			c0.1-0.5,0.2-1.1,0.3-1.6l0-0.2c0-0.1,0-0.3,0.1-0.4c0-0.2,0.1-0.4,0.1-0.6c0.1-0.6,0.3-1.2,0.4-1.8l0-0.2c0-0.1,0.1-0.2,0.1-0.4
			c0-0.2,0.1-0.4,0.1-0.5c0.2-0.6,0.3-1.2,0.5-1.9l0-0.1c0-0.1,0.1-0.3,0.1-0.4c0-0.2,0.1-0.3,0.1-0.5c0.2-0.6,0.4-1.2,0.6-1.8
			l0.1-0.2c0-0.1,0.1-0.2,0.1-0.3c0-0.2,0.1-0.3,0.2-0.5c0.2-0.6,0.5-1.3,0.7-1.9l0-0.1c0-0.1,0.1-0.2,0.1-0.3
			c0.1-0.2,0.1-0.3,0.2-0.5c0.3-0.7,0.5-1.4,0.9-2.1c0-0.1,0.1-0.2,0.1-0.3c0.1-0.1,0.1-0.3,0.2-0.4c0.3-0.8,0.7-1.5,1-2.2
			c0-0.1,0.1-0.2,0.1-0.3c0-0.1,0.1-0.2,0.1-0.3c0.4-0.8,0.7-1.5,1.1-2.3c0-0.1,0.1-0.2,0.1-0.3c0-0.1,0.1-0.2,0.1-0.3
			c0.4-0.8,0.9-1.7,1.2-2.4c0-0.1,0.1-0.2,0.1-0.2c0-0.1,0.1-0.2,0.1-0.2c0.5-0.9,1-1.7,1.3-2.4c0-0.1,0.1-0.1,0.1-0.2
			c0-0.1,0.1-0.1,0.1-0.2c0.4-0.7,0.9-1.5,1.5-2.4l0.1-0.2c0-0.1,0.1-0.1,0.1-0.2c0.5-0.7,1-1.5,1.6-2.4l0.2-0.3
			c0.5-0.7,1.1-1.5,1.7-2.4c0,0,0.1-0.1,0.1-0.1c0,0,0.1-0.1,0.1-0.1c0.6-0.8,1.2-1.6,1.9-2.5l0.1-0.2c0.6-0.8,1.3-1.7,2.1-2.6
			l0.1-0.1c0.7-0.9,1.5-1.8,2.2-2.6c0.4-0.5,0.9-1,1.3-1.4l0.3-0.3c0.3-0.3,0.6-0.7,0.9-1l0.3-0.3c0.7-0.7,1.4-1.5,2-2.1
			c-22.3,0.4-24.6,12.3-27.8,28.9L76,87.9z"/>
	</g>
</g>
</svg>
